<svg width="150" height="150" viewBox="0 0 150 150" fill="none" xmlns="http://www.w3.org/2000/svg">
<path d="M96.4775 125.079H91.2328C90.8375 125.079 90.5181 124.958 90.2755 124.714C90.0319 124.472 89.9102 124.154 89.9102 123.759V96.1632C89.9102 95.769 90.0309 95.4506 90.2755 95.2081C90.5202 94.9655 90.8375 94.8438 91.2328 94.8438H96.3867C96.7809 94.8438 97.1003 94.9655 97.3439 95.2081C97.5864 95.4517 97.7093 95.77 97.7093 96.1632L97.8001 123.759C97.8001 124.154 97.6783 124.472 97.4347 124.714C97.1911 124.957 96.8717 125.079 96.4775 125.079Z" fill="#01372E"/>
<path d="M66.8683 25.1855H120.854C121.249 25.1855 121.567 25.3073 121.81 25.5499C122.052 25.7935 122.174 26.1118 122.174 26.5061V89.8896C122.174 90.2849 122.052 90.6033 121.81 90.8458C121.567 91.0883 121.248 91.2101 120.854 91.2101L66.8683 91.1642C66.474 91.1642 66.1557 91.0499 65.9131 90.8223C65.6696 90.5947 65.5488 90.2689 65.5488 89.8426V26.5071C65.5488 26.1129 65.6696 25.7935 65.9131 25.5509C66.1567 25.3084 66.474 25.1866 66.8683 25.1866V25.1855ZM114.374 82.0926V34.3041C114.374 33.9099 114.252 33.5915 114.009 33.349C113.766 33.1065 113.447 32.9847 113.053 32.9847H74.6685C74.2732 32.9847 73.9548 33.1065 73.7123 33.349C73.4698 33.5915 73.348 33.911 73.348 34.3041V82.0926C73.348 82.4868 73.4687 82.8052 73.7123 83.0477C73.9548 83.2913 74.2743 83.412 74.6685 83.412H113.053C113.447 83.412 113.766 83.2913 114.009 83.0477C114.253 82.8041 114.374 82.4868 114.374 82.0926Z" fill="#01372E"/>
<path d="M133.955 123.546C133.955 123.94 133.833 124.258 133.592 124.501C133.348 124.745 133.03 124.865 132.637 124.865H126.682C126.318 124.865 125.984 124.714 125.682 124.41L112.953 110.247C112.377 109.609 111.892 109.29 111.499 109.29C110.923 109.29 110.635 109.898 110.635 111.111V123.759C110.635 124.154 110.513 124.472 110.27 124.715C110.028 124.957 109.707 125.079 109.312 125.079H104.158C103.763 125.079 103.443 124.958 103.201 124.715C102.957 124.472 102.836 124.154 102.836 123.759V96.0565C102.836 95.6623 102.957 95.3439 103.201 95.1014C103.443 94.8589 103.763 94.7371 104.158 94.7371H110.065C110.489 94.7371 110.808 94.8738 111.02 95.1462L123.806 108.929C124.412 109.566 124.897 109.884 125.262 109.884C125.838 109.884 126.126 109.279 126.126 108.065V21.955H23.7372V128.045H109.934C111.041 128.045 112.1 128.491 112.874 129.283L116.696 133.195C117.579 134.099 117.016 135.661 115.753 135.734C115.719 135.736 115.684 135.737 115.649 135.737H17.8302C16.8441 135.737 16.0449 134.938 16.0449 133.952V16.048C16.0449 15.0618 16.8441 14.2627 17.8302 14.2627H131.995C132.981 14.2627 133.78 15.0618 133.78 16.048V16.1024C133.806 16.2146 133.818 16.3343 133.818 16.4625L133.955 123.546Z" fill="#01372E"/>
<path d="M28.6824 77.3224H60.2155C61.1546 77.3224 61.9164 78.0841 61.9164 79.0232V93.2486C61.9164 94.1877 62.6781 94.9495 63.6172 94.9495H83.3982C84.3373 94.9495 85.0991 95.7113 85.0991 96.6504V123.376C85.0991 124.315 84.3373 125.077 83.3982 125.077H34.9591L28.6963 125.132C27.7508 125.141 26.9805 124.377 26.9805 123.431V79.0221C26.9805 78.083 27.7422 77.3213 28.6813 77.3213L28.6824 77.3224ZM34.9944 87.5702V93.2486C34.9944 94.1877 35.7561 94.9495 36.6952 94.9495H52.3095C53.2486 94.9495 54.0104 94.1877 54.0104 93.2486V87.5702C54.0104 86.6311 53.2486 85.8694 52.3095 85.8694H36.6952C35.7561 85.8694 34.9944 86.6311 34.9944 87.5702ZM34.9944 105.092V114.83C34.9944 115.769 35.7561 116.531 36.6952 116.531H75.4933C76.4324 116.531 77.1941 115.769 77.1941 114.83V105.092C77.1941 104.152 76.4324 103.391 75.4933 103.391H36.6952C35.7561 103.391 34.9944 104.152 34.9944 105.092Z" fill="#01372E"/>
<path d="M29.1443 25.293H60.1817C61.14 25.293 61.9178 26.0697 61.9178 27.0291V62.1263C61.9178 63.0846 61.1411 63.8624 60.1817 63.8624H48.3505L52.2843 69.4618C53.092 70.6124 52.2693 72.1957 50.8633 72.1957H45.5514C44.9723 72.1957 44.4317 71.9073 44.1101 71.4265L39.5535 64.6316C39.2309 64.1509 38.6903 63.8624 38.1123 63.8624H36.624C35.6657 63.8624 34.8879 64.6391 34.8879 65.5985V70.3539C34.8879 71.3122 34.1112 72.09 33.1518 72.09H29.1443C28.186 72.09 27.4082 71.3133 27.4082 70.3539V27.0291C27.4082 26.0707 28.1849 25.293 29.1443 25.293ZM54.545 54.1124V35.0408C54.545 34.0825 53.7682 33.3047 52.8088 33.3047H36.6219C35.6635 33.3047 34.8858 34.0814 34.8858 35.0408V54.1124C34.8858 55.0707 35.6625 55.8485 36.6219 55.8485H52.8088C53.7672 55.8485 54.545 55.0718 54.545 54.1124Z" fill="#01372E"/>
</svg>
